<?xml version="1.0" standalone="no"?>
<!DOCTYPE svg PUBLIC "-//W3C//DTD SVG 20010904//EN"
 "http://www.w3.org/TR/2001/REC-SVG-20010904/DTD/svg10.dtd">
<svg version="1.0" xmlns="http://www.w3.org/2000/svg"
 width="200.000000pt" height="200.000000pt" viewBox="0 0 200.000000 200.000000"
 preserveAspectRatio="xMidYMid meet">
<metadata>
Created by potrace 1.11, written by Peter Selinger 2001-2013
</metadata>
<g transform="translate(0.000000,200.000000) scale(0.100000,-0.100000)"
fill="#000000" stroke="none">
<path d="M895 1984 c-207 -37 -374 -120 -506 -255 -130 -131 -220 -299 -263
-489 -26 -113 -35 -184 -41 -305 -8 -172 -15 -226 -52 -370 -27 -106 -34 -151
-29 -188 21 -182 225 -327 516 -366 81 -11 330 -6 390 7 25 6 56 13 70 16 82
17 112 26 225 68 302 113 574 344 698 593 74 149 98 263 92 435 -6 197 -71
402 -166 521 -28 36 -28 37 -9 54 11 10 22 32 25 49 18 91 -81 152 -156 97
l-29 -22 -46 32 c-82 56 -182 95 -319 125 -62 13 -320 12 -400 -2z"/>
</g>
</svg>
